<?xml version="1.0" standalone="no"?><!DOCTYPE svg PUBLIC "-//W3C//DTD SVG 1.1//EN" "http://www.w3.org/Graphics/SVG/1.1/DTD/svg11.dtd"><svg t="1713497259431" class="icon" viewBox="0 0 1024 1024" version="1.1" xmlns="http://www.w3.org/2000/svg" p-id="6674" xmlns:xlink="http://www.w3.org/1999/xlink" width="200" height="200"><path d="M512 512m-512 0a512 512 0 1 0 1024 0 512 512 0 1 0-1024 0Z" fill="#FC8BA4" p-id="6675"></path><path d="M668 196c-8.8 0-16 7.2-16 16v9.6c0 8.8-7.2 16-16 16H453.6c-8.8 0-16 7.2-16 16v200c0 8.8 7.2 16 16 16h368c8.8 0 16-7.2 16-16v-76-124-41.6c0-8.8-7.2-16-16-16H668z" fill="#FBD000" p-id="6676"></path><path d="M801.6 256H700c-8.8 0-16-7.2-16-16s7.2-16 16-16h101.6c8.8 0 16 7.2 16 16s-7.2 16-16 16z" fill="#FFFFFF" p-id="6677"></path><path d="M784 368V192.8h-30.4L752 416h86.4v-48z" fill="#EAAD53" p-id="6678"></path><path d="M824 477.6H453.6c-13.6 0-24-10.4-24-24v-200c0-13.6 10.4-24 24-24h183.2c4.8 0 8-3.2 8-8V216c0-13.6 10.4-24 24-24H824c13.6 0 24 10.4 24 24v237.6c0 12.8-10.4 24-24 24z m-370.4-232c-4.8 0-8 3.2-8 8v200c0 4.8 3.2 8 8 8H824c4.8 0 8-3.2 8-8V216c0-4.8-3.2-8-8-8H668c-4.8 0-8 3.2-8 8v5.6c0 13.6-10.4 24-24 24H453.6z" fill="#7C4119" p-id="6679"></path><path d="M585.6 196c-8.8 0-16 7.2-16 16v9.6c0 8.8-7.2 16-16 16H370.4c-8.8 0-16 7.2-16 16v200c0 8.8 7.2 16 16 16h368c8.8 0 16-7.2 16-16V212c0-8.8-7.2-16-16-16H585.6z" fill="#FBD000" p-id="6680"></path><path d="M716 256H615.2c-8.8 0-16-7.2-16-16s7.2-16 16-16h101.6c8.8 0 16 7.2 16 16s-8 16-16.8 16z" fill="#FFFFFF" p-id="6681"></path><path d="M704 368V196.8h-31.2l0.8 223.2h80.8V368z" fill="#EAAD53" p-id="6682"></path><path d="M736 477.6H370.4c-13.6 0-24-10.4-24-24V256c0-13.6 10.4-24 24-24h183.2c4.8 0 8-3.2 8-8v-8c0-13.6 10.4-24 24-24H736c13.6 0 24 10.4 24 24v237.6c0 12.8-10.4 24-24 24zM370.4 248c-4.8 0-8 3.2-8 8v197.6c0 4.8 3.2 8 8 8H736c4.8 0 8-3.2 8-8V216c0-4.8-3.2-8-8-8H585.6c-4.8 0-8 3.2-8 8v8c0 13.6-10.4 24-24 24H370.4z" fill="#7C4119" p-id="6683"></path><path d="M512 196c-8.8 0-17.6 7.2-19.2 16l-1.6 12c-1.6 8.8-10.4 16-19.2 16H288.8c-8.8 0-16 7.2-16 16v197.6c0 8.8 7.2 16 16 16h368c8.8 0 16-7.2 16-16v-76-124-41.6c0-8.8-7.2-16-16-16H512z" fill="#FBD000" p-id="6684"></path><path d="M635.2 256H533.6c-8.8 0-16-7.2-16-16s7.2-16 16-16h101.6c8.8 0 16 7.2 16 16s-7.2 16-16 16z" fill="#FFFFFF" p-id="6685"></path><path d="M624 368V196.8h-32v223.2h84.8V368z" fill="#EAAD53" p-id="6686"></path><path d="M656 480H288c-13.6 0-24-10.4-24-24V256c0-13.6 10.4-16 24-16l183.2-8c4.8 0 8-3.2 8-8v-8c0-13.6 10.4-24 24-24H656c13.6 0 24 10.4 24 24v240c0 13.6-10.4 24-24 24zM288 248c-4.8 0-8 3.2-8 8v200c0 4.8 3.2 8 8 8h368c4.8 0 8-3.2 8-8V216c0-4.8-3.2-8-8-8H503.2c-4.8 0-8 3.2-8 8v8c0 13.6-10.4 24-24 24H288z" fill="#7C4119" p-id="6687"></path><path d="M423.2 200c-8.8 0-16 7.2-16 16v8c0 8.8-7.2 16-16 16H208c-8.8 0-16 7.2-16 16v197.6c0 8.8 7.2 16 16 16h368c8.8 0 16-7.2 16-16v-76-124-41.6c0-8.8-7.2-16-16-16l-152.8 4z" fill="#FBD000" p-id="6688"></path><path d="M193.6 368h396v52H193.6z" fill="#EAAD53" p-id="6689"></path><path d="M576 477.6H208c-13.6 0-24-10.4-24-24V256c0-13.6 10.4-24 24-24h176c5.6 0 12.8-4.8 14.4-9.6l4-10.4c4.8-11.2 17.6-20 29.6-20h144c13.6 0 24 10.4 24 24v237.6c0 12.8-10.4 24-24 24zM208 248c-4.8 0-8 3.2-8 8v197.6c0 4.8 3.2 8 8 8h368c4.8 0 8-3.2 8-8V216c0-4.8-3.2-8-8-8H432c-5.6 0-12.8 4.8-14.4 9.6l-4 10.4c-4 11.2-17.6 20-29.6 20H208z" fill="#7C4119" p-id="6690"></path><path d="M76 496C60.8 496 48 483.2 48 468c0-16 12.8-28 28-28s28 12.8 28 28S91.2 496 76 496z m0-43.2c-8 0-15.2 6.4-15.2 15.2 0 8 6.4 15.2 15.2 15.2 8 0 15.2-6.4 15.2-15.2 0-8.8-7.2-15.2-15.2-15.2zM536.8 111.2c-17.6 0-31.2-14.4-31.2-31.2 0-17.6 14.4-31.2 31.2-31.2S568 62.4 568 79.2c0 17.6-14.4 32-31.2 32z m0-48.8c-9.6 0-16.8 7.2-16.8 16.8 0 9.6 7.2 16.8 16.8 16.8s16.8-7.2 16.8-16.8c0-8.8-8-16.8-16.8-16.8zM370.4 146.4c0-3.2-3.2-6.4-8-7.2l-15.2-2.4c-4-0.8-8.8-4.8-8.8-8.8l-2.4-15.2c-0.8-4-4-8-7.2-8s-6.4 3.2-7.2 8L320 128c-0.8 4-4.8 8.8-8.8 8.8l-15.2 2.4c-4 0.8-8 4-8 7.2s3.2 6.4 8 7.2l15.2 2.4c4 0.8 8.8 4.8 8.8 8.8l2.4 15.2c0.8 4 4 8 7.2 8s6.4-3.2 7.2-8l2.4-16.8c0.8-4 4.8-8 8.8-8.8l14.4-0.8c4.8-1.6 8-4.8 8-7.2zM964.8 368.8c0-3.2-3.2-6.4-8-7.2l-15.2-2.4c-4-0.8-8.8-4.8-8.8-8.8l-2.4-15.2c-0.8-4-4-8-7.2-8s-6.4 3.2-7.2 8l-2.4 15.2c-0.8 4-4.8 8.8-8.8 8.8l-15.2 2.4c-4 0.8-8 4-8 7.2s3.2 6.4 8 7.2l15.2 2.4c4 0.8 8.8 4.8 8.8 8.8l2.4 15.2c0.8 4 4 8 7.2 8s6.4-3.2 7.2-8l2.4-16.8c0.8-4 4.8-8 8.8-8.8l14.4-0.8c5.6-1.6 8.8-4.8 8.8-7.2z" fill="#FFFFFF" opacity=".5" p-id="6691"></path><path d="M141.6 488c0-35.2 28.8-64 64-64H656v480H205.6c-35.2 0-64-28.8-64-64V488z" fill="#EAEAEA" p-id="6692"></path><path d="M656 424h160c35.2 0 64 28.8 64 64v352c0 35.2-28.8 64-64 64H656V424z" fill="#D4D6D6" p-id="6693"></path><path d="M552 672c0 17.6-14.4 32-32 32H280c-17.6 0-32-14.4-32-32v-48c0-17.6 14.4-32 32-32h240c17.6 0 32 14.4 32 32v48z" fill="#FFFFFF" p-id="6694"></path><path d="M430.4 640H280c-4.8 0-8-3.2-8-8s3.2-8 8-8h150.4c4.8 0 8 3.2 8 8s-4 8-8 8zM516 640H464c-4.8 0-8-3.2-8-8s3.2-8 8-8h52c4.8 0 8 3.2 8 8s-4 8-8 8zM375.2 680H280c-4.8 0-8-3.2-8-8s3.2-8 8-8h95.2c4.8 0 8 3.2 8 8s-3.2 8-8 8zM484.8 680h-77.6c-4.8 0-8-3.2-8-8s3.2-8 8-8h77.6c4.8 0 8 3.2 8 8s-3.2 8-8 8z" fill="#9E928A" p-id="6695"></path><path d="M592 808H204c-35.2 0-64-34.4-64-69.6v98.4c0 35.2 28.8 64 64 64H656V738.4c0 35.2-28.8 69.6-64 69.6z" fill="#D4D6D6" p-id="6696"></path><path d="M656 912H204.8c-39.2 0-68.8-32-68.8-72V488c0-40 30.4-72 68.8-72H656c4.8 0 8 3.2 8 8v480c0 4.8-3.2 8-8 8zM204.8 432c-29.6 0-53.6 24.8-53.6 56v352c0 31.2 23.2 56 52.8 56H648V432H204.8z" fill="#7C4119" p-id="6697"></path><path d="M477.6 512.8c0 12-10.4 22.4-24 22.4H344.8c-13.6 0-24-9.6-24-22.4 0-12 10.4-22.4 24-22.4h109.6c12.8 0 23.2 10.4 23.2 22.4z" fill="#EAAD53" p-id="6698"></path><path d="M344.8 508h109.6c9.6 0 18.4 5.6 22.4 13.6 1.6-2.4 1.6-5.6 1.6-8.8 0-12-10.4-22.4-24-22.4H344.8c-13.6 0-24 9.6-24 22.4 0 3.2 0.8 6.4 1.6 8.8 4-8 12-13.6 22.4-13.6z" fill="#D89041" p-id="6699"></path><path d="M456 544H344c-17.6 0-32-14.4-32-32s14.4-32 32-32h112c17.6 0 32 14.4 32 32s-14.4 32-32 32z m-112-48c-8.8 0-16 7.2-16 16s7.2 16 16 16h112c8.8 0 16-7.2 16-16s-7.2-16-16-16H344z" fill="#7C4119" p-id="6700"></path><path d="M548 256H447.2c-8.8 0-16-7.2-16-16s7.2-16 16-16h101.6c8.8 0 16 7.2 16 16s-8 16-16.8 16zM820 878.4c-3.2 0-6.4-1.6-7.2-4.8-1.6-4 0.8-8.8 4.8-10.4 9.6-4 22.4-12 22.4-44V601.6c0-4.8 3.2-8 8-8s8 3.2 8 8v217.6c0 30.4-11.2 50.4-32.8 58.4-0.8 0.8-2.4 0.8-3.2 0.8zM848 554.4c-4.8 0-8-3.2-8-8v-72c0-4.8 3.2-8 8-8s8 3.2 8 8v72c0 4.8-3.2 8-8 8zM616 738.4c-4.8 0-8-3.2-8-8V520.8c0-31.2-24.8-56.8-56-56.8H400c-4.8 0-8-2.4-8-7.2 0-4.8 3.2-8 8-8h152c40 0 72 32 72 72v209.6c0 4-3.2 8-8 8zM345.6 464H264c-4.8 0-8-2.4-8-7.2 0-4.8 3.2-8 8-8h81.6c4.8 0 8 3.2 8 8s-4 7.2-8 7.2zM377.6 280H223.2c-4.8 0-8-3.2-8-8s3.2-8 8-8h154.4c4.8 0 8 3.2 8 8s-3.2 8-8 8z" fill="#FFFFFF" p-id="6701"></path><path d="M928 912H96c-4.8 0-8-3.2-8-8s4-8 8-8h832c4.8 0 8 3.2 8 8s-4 8-8 8z" fill="#7C4119" p-id="6702"></path><path d="M816.8 912H656c-2.4 0-4-0.8-5.6-2.4s-2.4-3.2-2.4-5.6V424c0-4.8 3.2-8 8-8h160c40 0 71.2 32 71.2 72v352c0.8 40-31.2 72-70.4 72zM664 896h152.8c31.2 0 56-24.8 56-56V488c0-31.2-24.8-56-56-56H664v464z" fill="#7C4119" p-id="6703"></path></svg>