<?xml version="1.0" standalone="no"?><!DOCTYPE svg PUBLIC "-//W3C//DTD SVG 1.1//EN" "http://www.w3.org/Graphics/SVG/1.1/DTD/svg11.dtd"><svg t="1713596065854" class="icon" viewBox="0 0 1024 1024" version="1.1" xmlns="http://www.w3.org/2000/svg" p-id="6270" xmlns:xlink="http://www.w3.org/1999/xlink" width="200" height="200"><path d="M512 0C229 0 0 229 0 512s229 512 512 512 512-229 512-512C1021.4 229 792.4 0 512 0z" fill="#6CA4E6" p-id="6271"></path><path d="M841.4 658.2c0 13.8-10.8 22.1-21.7 22.1-13.5 0-21.7-11-21.7-22.1v-33.1c0-57.9-37.9-110.3-92.1-124-8.1 0-13.5-2.8-16.2-11v-16.5c0-2.8 2.7-2.8 2.7-5.5 0-2.8 2.7-5.5 5.4-5.5 21.7-8.3 35.2-33.1 35.2-57.9 0-30.3-19-55.1-46-60.6-10.8-5.5-16.2-16.5-13.5-27.6 2.7-13.8 13.5-19.3 24.4-16.5 43.3 13.8 75.8 55.1 75.8 104.8 0 27.6-8.1 52.4-21.7 68.9 54.2 27.6 89.4 85.5 89.4 151.6v32.9z" fill="#FFFFFF" p-id="6272"></path><path d="M706 771.4H337.7c-24.6 0-43.9-19.5-43.9-44.3V683c0-85.7 45.5-164.7 115.9-205.5-20.8-27.6-31.9-60.5-31.9-95 0-83.7 64.6-151.8 144.1-151.8S666 298.8 666 382.5c0 36.3-11.1 69.4-31.7 96 68.6 42 113 118.9 115.6 203.8v44.8c0 24.9-19.3 44.3-43.9 44.3zM521.8 275.2c-55 0-99.7 48.1-99.7 107.3 0 32.2 13.8 62.6 38.8 85.5 5.6 5.2 8.2 12.9 6.9 20.4-1.4 7.5-6.5 13.9-13.6 16.7-68.3 27.3-116 100.4-116 177.8V727l367.2-0.2V683c-2.4-78-48.2-148.2-116.6-178.1-7.1-3.1-12-9.6-13.1-17.3-1.1-7.6 1.9-15.3 7.8-20.3 24.9-20.7 38-50.1 38-84.9 0-59-44.7-107.2-99.7-107.2z" fill="#FFFFFF" p-id="6273"></path><path d="M248.3 630.6v33.1c0 13.8-10.8 22.1-21.7 22.1-13.5 0-21.7-11-21.7-22.1v-35.8c0-66.2 35.2-124.1 89.4-151.6-16.3-19.3-27.1-44.1-27.1-71.7 0-49.6 32.5-93.7 78.5-104.8 13.5-2.8 24.4 5.5 29.8 16.5 2.7 11-5.4 22.1-16.3 24.8-27.1 8.3-46 33.1-46 63.4 0 24.8 13.5 46.9 35.2 57.9l5.4 5.5c0 2.8 2.7 2.8 2.7 5.5v22.1c-2.7 5.5-8.1 11-16.2 11-54.1 13.8-92 63.5-92 124.1z" fill="#FFFFFF" p-id="6274"></path></svg>