<?xml version="1.0" standalone="no"?><!DOCTYPE svg PUBLIC "-//W3C//DTD SVG 1.1//EN" "http://www.w3.org/Graphics/SVG/1.1/DTD/svg11.dtd"><svg t="1717689342121" class="icon" viewBox="0 0 1024 1024" version="1.1" xmlns="http://www.w3.org/2000/svg" p-id="7661" xmlns:xlink="http://www.w3.org/1999/xlink" width="200" height="200"><path d="M609.129828 289.215836L164.320601 545.559906c-0.854699 0.502443-1.772203 0.928427-2.700629 1.280683a30.528854 30.528854 0 0 0-17.203201 16.083627 30.654465 30.654465 0 0 0-0.800085 23.565654l26.877953 71.720962c4.470101 11.968512 16.045398 19.999403 28.811264 19.999403a30.692694 30.692694 0 0 0 10.775211-1.963349 17.53088 17.53088 0 0 1 2.856278-0.8192l503.190881-100.46123a30.545238 30.545238 0 0 0 15.968939-15.603029 30.602582 30.602582 0 0 0 0.789163-23.565654l-85.431639-228.103515c-5.597867-14.999552-23.005867-23.511041-38.324908-18.475691zM199.305903 714.932241c-27.967489 0-53.343575-17.599147-63.168513-43.827201l-26.856107-71.701847c-6.326955-16.897366-5.707093-35.241985 1.747626-51.669676 7.233536-15.936171 20.054016-28.202326 36.214103-34.709505l445.054986-256.469681c0.854699-0.499712 1.76128-0.928427 2.689707-1.280682a67.196247 67.196247 0 0 1 23.669419-4.308992c27.945643 0 53.329921 17.6128 63.133015 43.829931l85.442562 228.095323a67.29182 67.29182 0 0 1-1.747627 51.669676 67.024215 67.024215 0 0 1-37.710507 35.285676 19.382272 19.382272 0 0 1-2.856278 0.8192l-503.466678 100.515842a67.111596 67.111596 0 0 1-22.145708 3.751936" fill="#FFFFFF" p-id="7662"></path><path d="M306.197853 685.834256a18.325504 18.325504 0 0 1-17.162241-11.924821l-65.399468-174.582447a18.377387 18.377387 0 0 1 10.720598-23.658497c9.494528-3.571712 20.054016 1.258837 23.606614 10.742443l65.396737 174.601562a18.377387 18.377387 0 0 1-10.720597 23.647574 18.459307 18.459307 0 0 1-6.444374 1.174186M595.072356 276.138673l119.488514 319.062024s50.473644-25.867606 35.498668-65.866412c-14.977707-39.979692-85.420717-228.087131-85.420717-228.087131s-14.101163-47.775745-69.566465-25.108481M502.579212 668.712976l10.018816 49.089196a5.870933 5.870933 0 0 1-4.543829 6.911317l-84.576941 17.301505a5.85728 5.85728 0 0 1-6.911317-4.554752l-10.016086-49.086465-27.415894 5.619712 9.99424 49.089196c3.757397 18.303659 21.667841 30.154753 39.949655 26.421931l84.57421-17.32335c18.295467-3.732821 30.113793-21.684225 26.37824-39.987884l-10.013355-49.089195-27.435008 5.61152" fill="#FFFFFF" p-id="7663"></path><path d="M604.18186 283.082759l-444.203019 256.382299c-0.854699 0.502443-1.76128 0.928427-2.697899 1.283414a30.520662 30.520662 0 0 0-17.175893 16.094549 30.750038 30.750038 0 0 0-0.797355 23.562924l26.836993 71.734615c4.467371 11.965782 16.029014 20.007595 28.767574 20.007595 3.670016 0 7.285419-0.671744 10.761557-1.971542a18.123435 18.123435 0 0 1 2.859008-0.811008l502.497292-100.480343a30.561622 30.561622 0 0 0 15.947094-15.616683 30.651734 30.651734 0 0 0 0.77824-23.562924l-85.303298-228.147205c-5.597867-14.999552-22.97583-23.521963-38.270294-18.475691z m-409.27233 425.792863c-27.923798 0-53.256193-17.601878-63.07021-43.840854l-26.815147-71.71277c-6.316032-16.894635-5.707093-35.241985 1.747627-51.680598 7.211691-15.93344 20.013056-28.213249 36.151297-34.717697l444.448778-256.513372c0.851968-0.49152 1.758549-0.917504 2.686976-1.280682a66.977794 66.977794 0 0 1 23.636652-4.308992c27.904683 0 53.248001 17.6128 63.051095 43.829931l85.31149 228.147206a67.338242 67.338242 0 0 1-1.739435 51.672406c-7.443798 16.42496-20.821334 28.958721-37.661356 35.293868-0.928427 0.354987-1.878699 0.619861-2.848085 0.821931L217.033392 705.120956a66.942295 66.942295 0 0 1-22.121131 3.754666" fill="#EE5043" p-id="7664"></path><path d="M301.664946 679.774907a18.300928 18.300928 0 0 1-17.132203-11.924822l-65.32301-174.623406c-3.560789-9.50272 1.247915-20.097707 10.709675-23.658497a18.276352 18.276352 0 0 1 23.573846 10.742443l65.312087 174.634329c3.56352 9.491798-1.247915 20.084054-10.709675 23.647574a18.221739 18.221739 0 0 1-6.43072 1.182379M590.132579 269.994673l119.330137 319.124829s50.408108-25.875798 35.444054-65.877335c-14.955862-39.987884-85.300567-228.128091-85.300568-228.128091s-14.082048-47.786668-69.473623-25.119403M497.781431 662.645435l9.99424 49.097387a5.870933 5.870933 0 0 1-4.532907 6.914049l-84.459522 17.312427a5.860011 5.860011 0 0 1-6.900395-4.565675l-10.005163-49.089196-27.380395 5.61152 9.99424 49.097388c3.741013 18.314582 21.632342 30.165675 39.881388 26.432854l84.459522-17.32335c18.270891-3.741013 30.070102-21.684225 26.345473-39.998806l-10.005163-49.097388-27.391318 5.60879" fill="#EE5043" p-id="7665"></path></svg>