<?xml version="1.0" standalone="no"?><!DOCTYPE svg PUBLIC "-//W3C//DTD SVG 1.1//EN" "http://www.w3.org/Graphics/SVG/1.1/DTD/svg11.dtd"><svg t="1713442577918" class="icon" viewBox="0 0 1024 1024" version="1.1" xmlns="http://www.w3.org/2000/svg" p-id="54378" xmlns:xlink="http://www.w3.org/1999/xlink" width="200" height="200"><path d="M892 392a8 8 0 0 1-7.584-5.472l-6.64-19.888a26.048 26.048 0 0 0-16.4-16.4l-19.904-6.64a8.016 8.016 0 0 1 0-15.2l19.904-6.624c7.696-2.56 13.824-8.688 16.4-16.4l6.64-19.904c2.176-6.528 12.992-6.528 15.168 0l6.64 19.904c2.576 7.712 8.704 13.84 16.4 16.4l19.904 6.624a8 8 0 0 1 0 15.2l-19.904 6.64a26.08 26.08 0 0 0-16.416 16.4l-6.64 19.888a7.968 7.968 0 0 1-7.568 5.472zM868.992 336a42.224 42.224 0 0 1 22.992 23.008A42.32 42.32 0 0 1 914.976 336a42.192 42.192 0 0 1-22.992-22.992A42.144 42.144 0 0 1 868.992 336zM992 648a8 8 0 0 1-8-8v-120c0-17.648-14.352-32-32-32h-576c-17.648 0-32 14.352-32 32V640a8 8 0 0 1-16 0v-120c0-26.464 21.536-48 48-48h576c26.464 0 48 21.536 48 48V640a8 8 0 0 1-8 8z" fill="#263238" p-id="54379"></path><path d="M504 640H336v280a40 40 0 0 0 40 40h576a40 40 0 0 0 40-40V640h-152" fill="#FFD740" p-id="54380"></path><path d="M952 968h-576c-26.464 0-48-21.536-48-48V640a8 8 0 0 1 8-8h168a8 8 0 0 1 0 16h-160v272c0 17.648 14.352 32 32 32h576c17.648 0 32-14.352 32-32v-272h-144a8 8 0 0 1 0-16H992a8 8 0 0 1 8 8v280c0 26.464-21.536 48-48 48zM824 456a7.952 7.952 0 0 1-6.784-3.76L788.96 407.04a31.84 31.84 0 0 0-27.136-15.024H582.16a31.84 31.84 0 0 0-27.136 15.04l-28.256 45.184a8 8 0 1 1-13.568-8.464l28.256-45.2a47.728 47.728 0 0 1 40.704-22.56h179.664c16.656 0 31.872 8.432 40.704 22.544l28.256 45.216a8 8 0 0 1-6.784 12.224z" fill="#263238" p-id="54381"></path><path d="M672 736m-160 0a160 160 0 1 0 320 0 160 160 0 1 0-320 0Z" fill="#FFFFFF" p-id="54382"></path><path d="M672 904c-92.64 0-168-75.36-168-168S579.36 568 672 568 840 643.36 840 736 764.624 904 672 904z m0-320c-83.808 0-152 68.192-152 152s68.192 152 152 152 152-68.192 152-152-68.192-152-152-152z" fill="#263238" p-id="54383"></path><path d="M672 736m-112 0a112 112 0 1 0 224 0 112 112 0 1 0-224 0Z" fill="#40C4FF" p-id="54384"></path><path d="M672 856c-66.176 0-120-53.824-120-120s53.824-120 120-120 120 53.824 120 120-53.84 120-120 120z m0-224c-57.344 0-104 46.656-104 104s46.656 104 104 104 104-46.656 104-104-46.672-104-104-104z" fill="#263238" p-id="54385"></path><path d="M736 744a8 8 0 0 1-8-8c0-30.88-25.12-56-56-56a8 8 0 0 1 0-16c39.696 0 72 32.304 72 72a8 8 0 0 1-8 8zM920 592H864c-13.232 0-24-10.768-24-24v-16c0-13.232 10.768-24 24-24h56c13.232 0 24 10.768 24 24v16c0 13.232-10.768 24-24 24zM864 544a8 8 0 0 0-8 8v16a8 8 0 0 0 8 8h56a8 8 0 0 0 8-8v-16a8 8 0 0 0-8-8H864zM720 440h-96a8 8 0 0 1 0-16h96a8 8 0 0 1 0 16zM944 920a8 8 0 0 1-8-8V688a8 8 0 0 1 16 0v224a8 8 0 0 1-8 8zM296 648H80c-13.232 0-24-10.768-24-24V80c0-13.232 10.768-24 24-24h488c13.232 0 24 10.768 24 24v272a8 8 0 0 1-16 0V80a8 8 0 0 0-8-8H80a8 8 0 0 0-8 8v544a8 8 0 0 0 8 8h216a8 8 0 0 1 0 16z" fill="#263238" p-id="54386"></path><path d="M308.176 488H128a8 8 0 0 1-8-8V128a8 8 0 0 1 8-8h392a8 8 0 0 1 8 8v259.632a8 8 0 0 1-16 0V136H136v336h172.192a8 8 0 1 1-0.016 16z" fill="#263238" p-id="54387"></path><path d="M360 240l-54.56 94.544L280 304 160 448h320z" fill="#4DB6AC" p-id="54388"></path><path d="M400 456a8.032 8.032 0 0 1-6.16-2.88L280 316.496l-113.856 136.624a8 8 0 0 1-12.304-10.256l120-144a8.256 8.256 0 0 1 12.304 0l120 144A8 8 0 0 1 400 456z" fill="#263238" p-id="54389"></path><path d="M480 456a8.032 8.032 0 0 1-6.944-4L360 256.016l-47.616 82.528a8.016 8.016 0 0 1-13.856-8l54.544-94.544c2.864-4.944 11.008-4.944 13.856 0l120 208a8 8 0 0 1-6.928 12zM216 264c-22.048 0-40-17.936-40-40s17.952-40 40-40S256 201.936 256 224s-17.952 40-40 40z m0-64c-13.232 0-24 10.768-24 24s10.768 24 24 24S240 237.232 240 224s-10.768-24-24-24zM64 728H32a8 8 0 0 1 0-16h32a8 8 0 0 1 0 16z" fill="#263238" p-id="54390"></path><path d="M296 728H96a8 8 0 0 1 0-16h200a8 8 0 0 1 0 16z" fill="#263238" p-id="54391"></path><path d="M928 216h-32a8 8 0 0 1 0-16h32a8 8 0 0 1 0 16z" fill="#263238" p-id="54392"></path><path d="M864 216H664a8 8 0 0 1 0-16H864a8 8 0 0 1 0 16z" fill="#263238" p-id="54393"></path></svg>