<?xml version="1.0" standalone="no"?><!DOCTYPE svg PUBLIC "-//W3C//DTD SVG 1.1//EN" "http://www.w3.org/Graphics/SVG/1.1/DTD/svg11.dtd"><svg t="1713497919344" class="icon" viewBox="0 0 1025 1024" version="1.1" xmlns="http://www.w3.org/2000/svg" p-id="22904" xmlns:xlink="http://www.w3.org/1999/xlink" width="200.1953125" height="200"><path d="M768 136.64l-9.92-18.24-18.24-9.92 17.6-12.48 10.56-17.92 9.92 18.24 20.16 11.84-20.16 9.92z" fill="" p-id="22905"></path><path d="M14.4 858.24c0 33.92 88 64 231.04 82.24a2102.08 2102.08 0 0 0 462.08 0c143.04-16.96 231.04-48.32 231.04-82.24s-88-64-231.04-82.24a2102.08 2102.08 0 0 0-462.08 0C102.72 792.96 14.4 824.32 14.4 858.24z" fill="" p-id="22906"></path><path d="M757.12 257.6h-275.2v-21.44a48.64 48.64 0 0 0-48.32-48.32H233.28a48.64 48.64 0 0 0-48.64 48.32v23.36a48.32 48.32 0 0 0-36.48 46.72v221.76a48.32 48.32 0 0 0 48.32 48h560.64a48.32 48.32 0 0 0 48.32-48.32v-224a48.32 48.32 0 0 0-48.32-46.08z" fill="" p-id="22907"></path><path d="M757.12 583.04H196.48a56.32 56.32 0 0 1-56.64-56.64V304.32a55.68 55.68 0 0 1 36.48-51.52v-16.96a56.32 56.32 0 0 1 56.64-56.64h200.32a56.32 56.32 0 0 1 56.64 56.64v13.44h266.88a56.32 56.32 0 0 1 56.64 56.64v222.08a55.68 55.68 0 0 1-56.32 55.04zM233.28 197.76A40.64 40.64 0 0 0 192 237.76v30.08l-6.72 1.6a34.24 34.24 0 0 0-28.48 34.88v221.76a40.64 40.64 0 0 0 41.28 40.32h560.64A40.64 40.64 0 0 0 800 526.4V304.32a40.64 40.64 0 0 0-40-40h-285.12v-28.48a40.64 40.64 0 0 0-40-40h-201.6z" fill="#CCCCCC" p-id="22908"></path><path d="M757.12 257.6h-275.2v-21.44a48.64 48.64 0 0 0-48.32-48.32H233.28a48.64 48.64 0 0 0-48.64 48.32v23.36a48.32 48.32 0 0 0-36.48 46.72v221.76a48.32 48.32 0 0 0 48.32 48h560.64a48.32 48.32 0 0 0 48.32-48.32v-224a48.32 48.32 0 0 0-48.32-46.08z" fill="#FFE422" p-id="22909"></path><path d="M757.12 583.04H196.48a56.32 56.32 0 0 1-56.64-56.64V304.32a55.68 55.68 0 0 1 36.48-51.52v-16.96a56.32 56.32 0 0 1 56.64-56.64h200.32a56.32 56.32 0 0 1 56.64 56.64v13.44h266.88a56.32 56.32 0 0 1 56.64 56.64v222.08a55.68 55.68 0 0 1-56.32 55.04zM233.28 197.76A40.64 40.64 0 0 0 192 237.76v30.08l-6.72 1.6a34.24 34.24 0 0 0-28.48 34.88v221.76a40.64 40.64 0 0 0 41.28 40.32h560.64A40.64 40.64 0 0 0 800 526.4V304.32a40.64 40.64 0 0 0-40-40h-285.12v-28.48a40.64 40.64 0 0 0-40-40h-201.6z" fill="" p-id="22910"></path><path d="M772.16 853.44H183.04a47.04 47.04 0 0 1-46.72-36.8L93.12 386.24a41.28 41.28 0 0 1 43.52-46.72h680.64a41.92 41.92 0 0 1 43.52 46.72L815.36 816.64a40.96 40.96 0 0 1-43.2 36.8z" fill="" p-id="22911"></path><path d="M772.16 861.76H183.04A56.32 56.32 0 0 1 128 818.24L84.48 387.84a51.2 51.2 0 0 1 13.44-40 49.28 49.28 0 0 1 40-16.64h680.96a58.24 58.24 0 0 1 40 16.64 55.68 55.68 0 0 1 13.44 40l-45.12 430.4a56 56 0 0 1-55.04 43.52zM136.32 347.84a32 32 0 0 0-26.56 11.84 32 32 0 0 0-8.32 26.56l45.12 428.8a37.12 37.12 0 0 0 38.4 28.48h587.2a38.4 38.4 0 0 0 38.4-28.48l45.12-431.04a32 32 0 0 0-8.32-26.56 32 32 0 0 0-26.56-11.84H136.32z" fill="#CCCCCC" p-id="22912"></path><path d="M772.16 853.44H183.04a47.04 47.04 0 0 1-46.72-36.8L93.12 386.24a41.28 41.28 0 0 1 43.52-46.72h680.64a41.92 41.92 0 0 1 43.52 46.72L815.36 816.64a40.96 40.96 0 0 1-43.2 36.8z" fill="" p-id="22913"></path><path d="M772.16 861.76H183.04A56.32 56.32 0 0 1 128 818.24L84.48 387.84a51.2 51.2 0 0 1 13.44-40 49.28 49.28 0 0 1 40-16.64h680.96a58.24 58.24 0 0 1 40 16.64 55.68 55.68 0 0 1 13.44 40l-45.12 430.4a56 56 0 0 1-55.04 43.52z" fill="" p-id="22914"></path><path d="M136.32 347.84a32 32 0 0 0-26.56 11.84 32 32 0 0 0-8.32 26.56l45.12 428.8a37.12 37.12 0 0 0 38.4 28.48h587.2a38.4 38.4 0 0 0 38.4-28.48l45.12-431.04a32 32 0 0 0-8.32-26.56 32 32 0 0 0-26.56-11.84H136.32z" fill="#FFE422" p-id="22915"></path><path d="M988.8 1024a10.88 10.88 0 0 1-9.92-9.92v-54.08a10.08 10.08 0 0 1 20.16 0v53.44c-1.92 6.4-5.12 10.56-10.24 10.56z" fill="" p-id="22916"></path><path d="M1024 988.48a10.88 10.88 0 0 1-9.92 9.92H960a10.08 10.08 0 1 1 0-20.16h53.44a10.88 10.88 0 0 1 10.56 10.24zM36.8 74.24a10.88 10.88 0 0 1-9.92-10.24V10.88a10.88 10.88 0 0 1 9.92-10.88 10.88 10.88 0 0 1 9.92 9.92v54.08c-1.6 5.12-4.8 10.24-9.92 10.24z" fill="" p-id="22917"></path><path d="M71.68 37.44a10.88 10.88 0 0 1-9.92 9.92H9.92A10.88 10.88 0 0 1 0 37.44 10.88 10.88 0 0 1 9.92 27.52H64a9.28 9.28 0 0 1 7.68 9.92zM952.96 247.68a7.68 7.68 0 0 1-8.32-8.32v-32a8.32 8.32 0 0 1 16.64 0v32c-1.28 5.12-5.12 8.32-8.32 8.32zM952.96 320a7.68 7.68 0 0 1-8.32-8.32v-32a8.32 8.32 0 0 1 16.64 0v32c-1.28 4.48-5.12 8.32-8.32 8.32zM941.44 259.2a7.68 7.68 0 0 1-8.32 8.32h-32a8.32 8.32 0 0 1 0-16.64h32a8.96 8.96 0 0 1 8.32 8.32zM1013.12 259.2a7.68 7.68 0 0 1-8.32 8.32h-32a8.32 8.32 0 0 1 0-16.64h32a10.88 10.88 0 0 1 8.32 8.32z" fill="" p-id="22918"></path><path d="M91.2 604.8l23.36-41.6 23.36 41.6 43.52 23.36-43.52 23.36-23.36 43.52-23.36-43.52-41.6-23.36z" fill="" p-id="22919"></path><path d="M114.56 711.36l-30.08-53.44L32 627.84l53.44-30.08 29.12-53.76 30.08 53.44 53.44 30.08-53.44 30.08z m-48.32-83.2l32 16.64 16.64 32 16.64-32 32-16.64-32-16.64-16.64-32-16.64 32z" fill="" p-id="22920"></path><path d="M91.2 604.8l23.36-41.6 23.36 41.6 43.52 23.36-43.52 23.36-23.36 43.52-23.36-43.52-41.6-23.36z" fill="#FFE422" p-id="22921"></path><path d="M114.56 711.36l-30.08-53.44L32 627.84l53.44-30.08 29.12-53.76 30.08 53.44 53.44 30.08-53.44 30.08z m-48.32-83.2l32 16.64 16.64 32 16.64-32 32-16.64-32-16.64-16.64-32-16.64 32z" fill="" p-id="22922"></path><path d="M764.16 103.04l3.84-7.04 5.12 6.72 6.72 5.12-6.72 3.2-5.12 8.64-3.2-8.32-8.32-3.2z" fill="#FFE422" p-id="22923"></path><path d="M303.04 482.88a19.84 19.84 0 0 0 9.92 17.28 20.16 20.16 0 0 0 20.16 0 20.16 20.16 0 0 0 0-34.56 20.16 20.16 0 0 0-20.16 0 19.84 19.84 0 0 0-9.92 17.28" fill="" p-id="22924"></path><path d="M323.2 512a28.48 28.48 0 1 1 28.48-28.48 29.12 29.12 0 0 1-28.48 28.48z m0-40a11.84 11.84 0 1 0 11.84 11.84 11.52 11.52 0 0 0-11.84-12.48z" fill="" p-id="22925"></path><path d="M611.84 482.88a20.16 20.16 0 1 0 20.16-20.16 20.16 20.16 0 0 0-20.16 20.16" fill="" p-id="22926"></path><path d="M632 512a28.48 28.48 0 1 1 28.48-28.48 28.16 28.16 0 0 1-28.48 28.48z m0-40a11.84 11.84 0 1 0 11.84 11.84 11.52 11.52 0 0 0-11.84-12.48z" fill="" p-id="22927"></path><path d="M506.88 911.68a56 56 0 0 1 5.12-79.68l163.52-156.8a48.416 48.416 0 1 1 68.48 68.48l-156.8 163.52a57.6 57.6 0 0 1-80.32 4.48z" fill="" p-id="22928"></path><path d="M541.76 933.44a62.08 62.08 0 0 1-41.6-16.64 57.6 57.6 0 0 1-16.64-41.6 72.64 72.64 0 0 1 21.76-50.24l163.52-156.8a56.64 56.64 0 1 1 80 80l-156.8 163.52a72.32 72.32 0 0 1-50.24 21.76z m167.04-265.28a36.48 36.48 0 0 0-28.48 11.84l-163.52 160a54.4 54.4 0 0 0-16.64 38.4 40 40 0 0 0 11.84 30.08 49.92 49.92 0 0 0 68.48-5.12L736 738.24a41.28 41.28 0 0 0 0-56.64 35.52 35.52 0 0 0-28.48-13.44z" fill="" p-id="22929"></path><path d="M506.88 911.68a56 56 0 0 1 5.12-79.68l163.52-156.8a48.416 48.416 0 1 1 68.48 68.48l-156.8 163.52a57.6 57.6 0 0 1-80.32 4.48z" fill="#FFE422" p-id="22930"></path><path d="M616.96 608a192 192 0 1 0 192-192 192 192 0 0 0-192 192" fill="" p-id="22931"></path><path d="M810.56 808.32a204.8 204.8 0 0 1-141.76-58.56 200.32 200.32 0 0 1 0-283.52 198.08 198.08 0 0 1 141.76-58.56 205.44 205.44 0 0 1 141.76 58.56 200.32 200.32 0 0 1-141.76 342.08z m0-384a180.16 180.16 0 0 0-130.24 53.44 183.68 183.68 0 0 0 130.24 313.6 192 192 0 0 0 129.92-55.36 184.32 184.32 0 0 0 0-260.16 192 192 0 0 0-129.92-53.12z" fill="" p-id="22932"></path><path d="M625.28 608a185.28 185.28 0 1 0 185.28-185.28 185.28 185.28 0 0 0-185.28 185.28" fill="#FFE422" p-id="22933"></path><path d="M658.56 608A151.68 151.68 0 1 0 736 476.48a152 152 0 0 0-77.44 131.52" fill="" p-id="22934"></path><path d="M810.56 768a160 160 0 1 1 113.28-46.72 162.24 162.24 0 0 1-113.28 46.72z m0-305.28a142.4 142.4 0 1 0 101.76 41.6 147.2 147.2 0 0 0-101.76-41.28z" fill="" p-id="22935"></path><path d="M665.28 608a145.28 145.28 0 1 0 145.28-145.28 145.28 145.28 0 0 0-145.28 145.28" fill="#FFE422" p-id="22936"></path><path d="M558.4 840a11.2 11.2 0 0 1 0-16.64l71.68-71.68a11.84 11.84 0 0 1 16.64 16.64L576 840a11.2 11.2 0 0 1-17.6 0z m-30.08 16.64a13.44 13.44 0 1 0 13.44-13.44 13.44 13.44 0 0 0-13.44 13.44m210.24-332.16a9.28 9.28 0 0 1 1.6-15.04 121.28 121.28 0 0 1 156.8 11.84 10.624 10.624 0 0 1-15.04 15.04 101.12 101.12 0 0 0-130.24-9.92 8.64 8.64 0 0 1-13.12-1.92z m-45.12 73.6a12.48 12.48 0 0 1-3.2-8.32 96 96 0 0 1 11.84-35.2 10.016 10.016 0 1 1 18.24 8.32 82.56 82.56 0 0 0-9.92 28.48c-1.6 5.12-6.72 9.92-11.84 8.32a5.44 5.44 0 0 1-4.8-1.6z" fill="" p-id="22937"></path><path d="M611.84 711.36a9.28 9.28 0 0 1-8.32-5.12 137.28 137.28 0 0 0-128-81.6 139.2 139.2 0 0 0-128 81.6 8.96 8.96 0 0 1-16.64-6.72 155.52 155.52 0 0 1 283.84 0c1.6 5.12 0 8.32-5.12 11.84z" fill="" p-id="22938"></path></svg>