<?xml version="1.0" ?><svg xmlns="http://www.w3.org/2000/svg" xmlns:xlink="http://www.w3.org/1999/xlink" version="1.1" id="Layer_1" viewBox="0 0 1500 1500" style="enable-background:new 0 0 1500 1500;" xml:space="preserve"><style type="text/css">
	.st0{fill:none;stroke:#000000;stroke-width:5;stroke-linecap:round;stroke-linejoin:round;stroke-miterlimit:10;}
	.st1{fill:#F9F9F9;stroke:#000000;stroke-width:5;stroke-linecap:round;stroke-linejoin:round;stroke-miterlimit:10;}
	.st2{fill:#FFD740;stroke:#000000;stroke-width:5;stroke-linecap:round;stroke-linejoin:round;stroke-miterlimit:10;}
	.st3{fill:#40C5FF;stroke:#000000;stroke-width:5;stroke-miterlimit:10;}
	.st4{fill:#FFFFFF;stroke:#000000;stroke-width:5;stroke-linecap:round;stroke-linejoin:round;stroke-miterlimit:10;}
	.st5{fill:none;stroke:#000000;stroke-width:5;stroke-miterlimit:10;}
	.st6{font-family:'ArialMT';}
	.st7{font-size:80.84px;}
	.st8{fill:#FFD740;}
	.st9{fill:#FFD740;stroke:#000000;stroke-width:5;stroke-miterlimit:10;}
</style><g id="Layer_1_1_"><line class="st0" x1="335.57" y1="336.5" x2="335.57" y2="394.84"/><line class="st0" x1="363.5" y1="365.67" x2="307.64" y2="365.67"/></g><g id="cup"><g><polygon class="st1" points="1331.67,793.04 1258.77,761.68 1258.77,678.61 1331.67,709.97   "/><polygon class="st1" points="1331.67,793.04 1404.56,761.68 1404.56,678.61 1331.67,709.97   "/><polygon class="st2" points="1331.67,709.97 1258.77,678.61 1331.67,648.1 1404.56,678.61   "/></g><g><line class="st0" x1="1309.22" y1="898.5" x2="1309.22" y2="1024.9"/><line class="st0" x1="1309.22" y1="842.78" x2="1309.22" y2="880.67"/></g><line class="st0" x1="1350.22" y1="978.78" x2="1350.22" y2="1009.9"/><line class="st0" x1="1350.22" y1="829.78" x2="1350.22" y2="960.11"/></g><g id="lap"><g><rect x="293.72" y="486.28" class="st1" width="919.94" height="586.31"/><rect x="346.46" y="541.47" class="st3" width="814.46" height="473.46"/><path class="st1" d="M1240.74,1142H267.02c-29.72,0-53.81-24.09-53.81-53.81v-5.06c0-5.51,4.47-9.98,9.98-9.98h1061.38    c5.51,0,9.98,4.47,9.98,9.98v5.06C1294.55,1117.91,1270.46,1142,1240.74,1142z"/><path class="st4" d="M833.53,1100H673.08c-5.51,0-9.98-4.47-9.98-9.98v-16.87h180.41v16.87    C843.51,1095.53,839.05,1100,833.53,1100z"/></g></g><g id="_x3C__x2F__x3E_"><g><rect x="165.56" y="611.15" class="st1" width="244" height="218.83"/><rect x="165.56" y="611.15" width="244" height="46.5"/><polyline class="st5" points="250.91,706.35 222.46,736.98 250.91,766.16   "/><polyline class="st5" points="325.31,706.35 353.76,736.98 325.31,766.16   "/><line class="st5" x1="295.04" y1="706.35" x2="277.53" y2="766.16"/></g></g><g id="C_x2B__x2B_"><g><path class="st1" d="M1296.09,554.85H1102.7l-31.34,32.93V451.44c0-9.89,8.02-17.91,17.91-17.91h206.82    c9.89,0,17.91,8.02,17.91,17.91v85.5C1314,546.83,1305.98,554.85,1296.09,554.85z"/><text transform="matrix(1 0 0 1 1121.7539 519.1006)" class="st6 st7"/></g></g><g id="setting"><g><g><path class="st8" d="M921.57,512.51c0,22.34-1.7,46.92-9.59,67c-16.66,42.37-51.82,74.35-93.11,90.77     c-18.83,7.49-40.52,6.95-62.02,6.95c-23.08,0-47.43-0.57-68.15-8.7c-42.06-16.52-74.77-52.19-90.77-93.4     c-7.18-18.49-5.8-41.59-5.8-62.62c0-22.69-0.49-46.48,7.55-66.97c16.42-41.87,52.93-74.92,93.4-91.36     c19.12-7.77,41.86-6.39,63.77-6.39c22.97,0,46.24-0.06,66.11,8.44c40.15,17.17,74.96,51.06,90.77,93.11     C921.07,468.86,921.57,490.94,921.57,512.51z"/><g><g id="_x3C_Radial_Repeat_x3E__10_"><path class="st9" d="M687.32,670.9c0,0,10.87,5.99,15.91,10.46s10.62,17.89,10.62,17.89c4.63,11.36,15.66,18.79,27.92,18.82       l28.16,0.06c12.42,0.03,23.59-7.55,28.16-19.09c0,0,3.53-13.63,9.44-19.22c5.91-5.6,14.84-7.42,14.84-7.42"/></g><g id="_x3C_Radial_Repeat_x3E__9_"><path class="st9" d="M595.28,576.01c0,0,3.45,11.92,3.85,18.65S594,614.82,594,614.82c-4.76,11.3-2.22,24.36,6.44,33.05       l19.87,19.96c8.76,8.8,22.02,11.34,33.41,6.41c0,0,12.13-7.14,20.27-6.92s15.74,5.25,15.74,5.25"/></g><g id="_x3C_Radial_Repeat_x3E__8_"><path class="st9" d="M597.29,443.83c0,0-5.99,10.87-10.46,15.91c-4.47,5.04-17.89,10.62-17.89,10.62       c-11.36,4.63-18.79,15.66-18.82,27.92l-0.06,28.16c-0.03,12.42,7.55,23.59,19.09,28.16c0,0,13.63,3.53,19.22,9.44       c5.6,5.91,7.42,14.84,7.42,14.84"/></g><g id="_x3C_Radial_Repeat_x3E__7_"><path class="st9" d="M692.18,351.78c0,0-11.92,3.45-18.65,3.85s-20.16-5.14-20.16-5.14c-11.3-4.76-24.36-2.22-33.05,6.44       l-19.96,19.87c-8.8,8.76-11.34,22.02-6.41,33.41c0,0,7.14,12.13,6.92,20.27s-5.25,15.74-5.25,15.74"/></g><g id="_x3C_Radial_Repeat_x3E__6_"><path class="st9" d="M824.36,353.79c0,0-10.87-5.99-15.91-10.46s-10.62-17.89-10.62-17.89c-4.63-11.36-15.66-18.79-27.92-18.82       l-28.16-0.06c-12.42-0.03-23.59,7.55-28.16,19.09c0,0-3.53,13.63-9.44,19.22c-5.91,5.6-14.84,7.42-14.84,7.42"/></g><g id="_x3C_Radial_Repeat_x3E__5_"><path class="st9" d="M916.41,448.68c0,0-3.45-11.92-3.85-18.65s5.14-20.16,5.14-20.16c4.76-11.3,2.22-24.36-6.44-33.05       l-19.87-19.96c-8.76-8.8-22.02-11.34-33.41-6.41c0,0-12.13,7.14-20.27,6.92s-15.74-5.25-15.74-5.25"/></g><g id="_x3C_Radial_Repeat_x3E__4_"><path class="st9" d="M914.4,580.86c0,0,5.99-10.87,10.46-15.91s17.89-10.62,17.89-10.62c11.36-4.63,18.79-15.66,18.82-27.92       l0.06-28.16c0.03-12.42-7.55-23.59-19.09-28.16c0,0-13.63-3.53-19.22-9.44s-7.42-14.84-7.42-14.84"/></g><g id="_x3C_Radial_Repeat_x3E__3_"><path class="st9" d="M819.51,672.91c0,0,11.92-3.45,18.65-3.85s20.16,5.14,20.16,5.14c11.3,4.76,24.36,2.22,33.05-6.44       l19.96-19.87c8.8-8.76,11.34-22.02,6.41-33.41c0,0-7.14-12.13-6.92-20.27s5.25-15.74,5.25-15.74"/></g></g></g><circle class="st1" cx="756.09" cy="512.59" r="120.96"/></g></g><g id="loading"><g><path class="st1" d="M1006.33,907.53H501.05c-18.05,0-32.68-14.63-32.68-32.68l0,0c0-18.05,14.63-32.68,32.68-32.68h505.29    c18.05,0,32.68,14.63,32.68,32.68l0,0C1039.01,892.89,1024.38,907.53,1006.33,907.53z"/><path d="M682.05,907.53h-181c-18.05,0-32.68-14.63-32.68-32.68l0,0c0-18.05,14.63-32.68,32.68-32.68h181    C682.05,879.87,682.05,879.87,682.05,907.53z"/></g></g></svg>