<?xml version="1.0" standalone="no"?><!DOCTYPE svg PUBLIC "-//W3C//DTD SVG 1.1//EN" "http://www.w3.org/Graphics/SVG/1.1/DTD/svg11.dtd"><svg t="1713443104600" class="icon" viewBox="0 0 1024 1024" version="1.1" xmlns="http://www.w3.org/2000/svg" p-id="82434" xmlns:xlink="http://www.w3.org/1999/xlink" width="200" height="200"><path d="M477.496889 694.016l311.893333-311.808-19.000889-224.597333-224.597333-19.000889L233.898667 450.503111l243.598222 243.484445zM593.493333 278.471111A47.815111 47.815111 0 0 1 627.399111 244.622222a47.928889 47.928889 0 0 1 46.392889 80.298667 48.241778 48.241778 0 0 1-67.896889 0 48.355556 48.355556 0 0 1-12.401778-46.421333z" fill="#E6F7FF" p-id="82435"></path><path d="M476.586667 792.604444a8.049778 8.049778 0 0 1-4.693334-2.275555L137.699556 456.078222a8.021333 8.021333 0 0 1 0-11.292444L515.896889 66.616889a7.537778 7.537778 0 0 1 4.693333-2.304h-0.398222a7.793778 7.793778 0 0 0-6.286222 2.275555L135.68 444.842667a8.021333 8.021333 0 0 0 0 11.292444l334.193778 334.222222a7.765333 7.765333 0 0 0 6.684444 2.275556z" fill="#E6F7FF" p-id="82436"></path><path d="M889.713778 539.790222l-39.594667-39.509333a8.049778 8.049778 0 0 0-11.320889 0L476.814222 861.582222 239.217778 624.583111a8.021333 8.021333 0 0 0-11.320889 0L188.302222 664.092444a8.021333 8.021333 0 0 0 0 11.292445l282.794667 282.311111a8.021333 8.021333 0 0 0 11.320889 0l407.296-406.613333a8.021333 8.021333 0 0 0 0-11.292445z m-237.397334-202.524444a47.786667 47.786667 0 0 0 33.905778-33.877334 47.928889 47.928889 0 0 0-58.794666-58.794666 47.786667 47.786667 0 0 0-33.905778 33.905778c-4.408889 16.583111 0.284444 34.190222 12.401778 46.364444a48.355556 48.355556 0 0 0 46.364444 12.430222z" fill="#1890FF" p-id="82437"></path><path d="M137.699556 444.814222a8.021333 8.021333 0 0 0 0 11.292445l334.222222 334.222222a7.765333 7.765333 0 0 0 4.664889 2.275555 7.879111 7.879111 0 0 0 6.627555-2.275555l378.197334-378.311111c1.706667-1.706667 2.503111-4.010667 2.275555-6.314667l-25.486222-301.397333a16.042667 16.042667 0 0 0-14.592-14.592L522.211556 64.284444h-1.621334a7.765333 7.765333 0 0 0-4.693333 2.275556L137.699556 444.842667zM545.792 138.609778l224.597333 19.000889 19.000889 224.597333-311.893333 311.808-243.598222-243.484444L545.792 138.581333z" fill="#1890FF" p-id="82438"></path></svg>