<?xml version="1.0" standalone="no"?><!DOCTYPE svg PUBLIC "-//W3C//DTD SVG 1.1//EN" "http://www.w3.org/Graphics/SVG/1.1/DTD/svg11.dtd"><svg t="1713532813346" class="icon" viewBox="0 0 1024 1024" version="1.1" xmlns="http://www.w3.org/2000/svg" p-id="6571" xmlns:xlink="http://www.w3.org/1999/xlink" width="200" height="200"><path d="M580.182398 165.042827c-228.856549 0-415.135135 186.278586-415.135135 415.135136s186.278586 409.81289 415.135135 409.812889 415.135135-186.278586 415.135135-415.135135c-5.322245-223.534304-186.278586-409.81289-415.135135-409.81289z" fill="#BFE6BA" p-id="6572"></path><path d="M510.993209 1021.924324c-282.079002 0-510.935551-228.856549-510.935551-510.935551s228.856549-510.935551 510.935551-510.935551 510.935551 228.856549 510.935551 510.935551-228.856549 510.935551-510.935551 510.935551z m0-958.004158c-244.823285 0-447.068607 202.245322-447.068607 447.068607 0 244.823285 202.245322 447.068607 447.068607 447.068607 244.823285 0 447.068607-202.245322 447.068607-447.068607 0-244.823285-196.923077-447.068607-447.068607-447.068607z" fill="#332D28" p-id="6573"></path><path d="M510.993209 851.612474c-37.255717 0-69.189189-31.933472-69.18919-69.189189s31.933472-69.189189 69.18919-69.189189c37.255717 0 69.189189 31.933472 69.189189 69.189189 0 37.255717-31.933472 69.189189-69.189189 69.189189zM702.59404 457.76632c-26.611227 31.933472-53.222453 63.866944-90.47817 90.478171-15.966736 10.644491-31.933472 26.611227-42.577963 47.900208-5.322245 21.288981-10.644491 42.577963-5.322245 63.866943h-106.444907v-26.611226c0-26.611227 5.322245-53.222453 15.966736-79.83368 15.966736-26.611227 37.255717-53.222453 63.866944-69.189189 21.288981-15.966736 42.577963-31.933472 58.544699-53.222453 10.644491-10.644491 15.966736-26.611227 15.966736-42.577963 0-21.288981-10.644491-42.577963-26.611227-53.222453-21.288981-15.966736-42.577963-26.611227-69.189189-21.288982-26.611227 0-53.222453 5.322245-69.189189 26.611227-21.288981 10.644491-37.255717 31.933472-42.577963 63.866944-5.322245 21.288981-101.122661 31.933472-101.122661-10.644491 5.322245-47.900208 26.611227-90.47817 58.544699-122.411642 42.577963-31.933472 95.800416-53.222453 149.022869-47.900208 53.222453-5.322245 111.767152 15.966736 154.345114 47.900208 37.255717 26.611227 58.544699 69.189189 58.544698 117.089397-5.322245 21.288981-10.644491 47.900208-21.288981 69.189189z" fill="#332D28" p-id="6574"></path></svg>