<?xml version="1.0" ?><svg id="Layer_1" style="enable-background:new 0 0 512 512;" version="1.1" viewBox="0 0 512 512" xml:space="preserve" xmlns="http://www.w3.org/2000/svg" xmlns:xlink="http://www.w3.org/1999/xlink"><style type="text/css">
	.st0{fill:#1EF6F6;}
	.st1{fill:#FDDD7B;}
	.st2{fill:#EAF3F2;}
	.st3{fill:#D4FF93;}
	.st4{fill:#FD535F;}
	.st5{stroke:#000000;stroke-width:2;stroke-linecap:round;stroke-linejoin:round;stroke-miterlimit:10;}
	.st6{fill:none;stroke:#000000;stroke-width:2;stroke-linecap:round;stroke-linejoin:round;stroke-miterlimit:10;}
	.st7{fill:#1EF6F6;stroke:#000000;stroke-width:2;stroke-linecap:round;stroke-linejoin:round;stroke-miterlimit:10;}
</style><g><g><path class="st0" d="M380.83,49.4H131.2c-0.93,0-1.68-0.75-1.68-1.68V10.4c0-0.93,0.75-1.68,1.68-1.68h249.63    c0.93,0,1.68,0.75,1.68,1.68v37.32C382.51,48.65,381.76,49.4,380.83,49.4z"/><path d="M369.52,57.13H142.5c-11.42,0-20.71-9.29-20.71-20.71V21.71C121.79,10.29,131.08,1,142.5,1h227.02    c11.42,0,20.71,9.29,20.71,20.71v14.71C390.23,47.84,380.95,57.13,369.52,57.13z M142.5,16.45c-2.9,0-5.26,2.35-5.26,5.25v14.71    c0,2.9,2.36,5.26,5.26,5.26h227.02c2.9,0,5.26-2.36,5.26-5.26V21.71c0-2.9-2.36-5.25-5.26-5.25H142.5z"/></g><g><path class="st2" d="M155.81,49.4v146.36c0,35.33,28.64,63.97,63.97,63.97h72.47c35.33,0,63.97-28.64,63.97-63.97V49.4H155.81z"/><path d="M292.25,267.46h-72.48c-39.53,0-71.69-32.16-71.69-71.7V49.4c0-4.27,3.46-7.73,7.73-7.73h200.41    c4.27,0,7.73,3.46,7.73,7.73v146.36C363.94,235.29,331.78,267.46,292.25,267.46z M163.54,57.13v138.63    c0,31.01,25.23,56.24,56.24,56.24h72.48c31.01,0,56.24-25.23,56.24-56.24V57.13H163.54z"/></g><g><path class="st3" d="M303.2,318.6h-94.38c-1.34,0-2.42-1.08-2.42-2.42v-53.7c0-1.34,1.08-2.42,2.42-2.42h94.38    c1.34,0,2.42,1.08,2.42,2.42v53.7C305.62,317.52,304.54,318.6,303.2,318.6z"/><path d="M286.94,326.33h-61.84c-14.56,0-26.41-11.85-26.41-26.41v-21.17c0-14.56,11.85-26.41,26.41-26.41h61.84    c14.56,0,26.41,11.85,26.41,26.41v21.17C313.35,314.48,301.5,326.33,286.94,326.33z M225.09,267.79    c-6.04,0-10.96,4.91-10.96,10.96v21.17c0,6.04,4.92,10.96,10.96,10.96h61.84c6.04,0,10.96-4.91,10.96-10.96v-21.17    c0-6.04-4.92-10.96-10.96-10.96H225.09z"/></g><g><rect class="st0" height="117.66" width="200.41" x="155.81" y="385.61"/><path d="M356.22,511H155.81c-4.27,0-7.73-3.46-7.73-7.73V385.61c0-4.27,3.46-7.73,7.73-7.73h200.41c4.27,0,7.73,3.46,7.73,7.73    v117.66C363.94,507.54,360.48,511,356.22,511z M163.54,495.55h184.95V393.34H163.54V495.55z"/></g><g><polygon class="st3" points="280.79,318.45 229.68,318.6 207.9,385.61 302.63,385.61   "/><path d="M302.63,393.34H207.9c-2.48,0-4.8-1.18-6.25-3.18c-1.45-2-1.86-4.58-1.1-6.93l21.79-67.01c1.03-3.17,3.99-5.33,7.33-5.34    l51.11-0.15c0.01,0,0.02,0,0.02,0c3.35,0,6.31,2.15,7.35,5.34l21.83,67.16c0.76,2.35,0.35,4.94-1.1,6.93    C307.43,392.16,305.1,393.34,302.63,393.34z M218.53,377.89h73.46l-16.81-51.69l-39.89,0.12L218.53,377.89z"/></g><g><path d="M430.98,511H81.05c-4.27,0-7.73-3.46-7.73-7.73c0-4.27,3.46-7.73,7.73-7.73h349.93c4.27,0,7.73,3.46,7.73,7.73    C438.71,507.54,435.25,511,430.98,511z"/></g><g><path class="st4" d="M423.54,77.3h-67.32l-0.05,85.37l0.05,9.56v9.14v9.03l-0.02,6.97c41.29,0,74.78-34.8,74.78-76.09V84.75    C430.98,80.63,427.65,77.3,423.54,77.3z"/><path d="M356.19,205.1c-2.05,0-4.02-0.81-5.47-2.27c-1.45-1.46-2.26-3.43-2.25-5.48l0.02-25.11l-0.05-9.53l0.05-85.42    c0-4.26,3.46-7.72,7.73-7.72h67.32c8.36,0,15.17,6.81,15.17,15.18v36.54C438.71,167.5,401.69,205.1,356.19,205.1z M363.94,85.03    l-0.05,77.65l0.05,26.52c33.34-3.93,59.31-32.89,59.31-67.91V85.03H363.94z M423.54,85.03h0.08H423.54z"/></g><g><path class="st4" d="M155.78,77.3H90.59c-5.28,0-9.57,4.28-9.57,9.57v34.42c0,41.29,33.5,76.09,74.79,76.09v-7.46v-8.37v-9.37    l0.02-9.51L155.78,77.3z"/><path d="M155.81,205.1c-45.5,0-82.52-37.6-82.52-83.82V86.87c0-9.54,7.76-17.3,17.3-17.3h65.2c4.27,0,7.72,3.46,7.73,7.72    l0.05,85.37l-0.02,34.71C163.54,201.64,160.08,205.1,155.81,205.1z M90.59,85.03c-1.01,0-1.84,0.82-1.84,1.84v34.42    c0,35.03,25.99,63.99,59.34,67.91l-0.02-104.17H90.59z"/></g><g><polygon class="st1" points="292.21,216.34 253.57,193.77 213.07,212.8 222.6,169.08 191.99,136.44 236.52,131.99 258.1,92.79     276.09,133.76 320.04,142.17 286.63,171.94   "/><path d="M292.21,224.07c-1.35,0-2.69-0.35-3.9-1.06l-35.13-20.53l-36.82,17.3c-2.66,1.25-5.8,0.88-8.1-0.95    c-2.3-1.83-3.36-4.81-2.73-7.69l8.67-39.75l-27.84-29.67c-2.01-2.15-2.63-5.25-1.6-8.01c1.03-2.75,3.54-4.68,6.47-4.97l40.49-4.04    l19.62-35.65c1.42-2.57,4.15-4.08,7.12-3.99c2.94,0.13,5.55,1.92,6.73,4.61l16.36,37.26l39.96,7.65c2.89,0.56,5.21,2.7,6,5.54    c0.78,2.83-0.11,5.86-2.31,7.83l-30.38,27.06l5.08,40.37c0.37,2.92-0.95,5.8-3.41,7.42C295.18,223.64,293.7,224.07,292.21,224.07z     M253.57,186.04c1.35,0,2.7,0.35,3.9,1.06l25.12,14.68l-3.63-28.86c-0.32-2.53,0.63-5.04,2.53-6.74l21.72-19.35l-28.58-5.47    c-2.5-0.48-4.6-2.16-5.62-4.48l-11.7-26.65l-14.03,25.49c-1.23,2.23-3.47,3.71-6,3.96l-28.95,2.9l19.91,21.21    c1.74,1.86,2.46,4.45,1.91,6.93l-6.2,28.43l26.33-12.38C251.33,186.28,252.45,186.04,253.57,186.04z"/></g></g></svg>