<?xml version="1.0" standalone="no"?><!DOCTYPE svg PUBLIC "-//W3C//DTD SVG 1.1//EN" "http://www.w3.org/Graphics/SVG/1.1/DTD/svg11.dtd"><svg t="1713442890161" class="icon" viewBox="0 0 1024 1024" version="1.1" xmlns="http://www.w3.org/2000/svg" p-id="64735" xmlns:xlink="http://www.w3.org/1999/xlink" width="200" height="200"><path d="M829.53764 538.597052c-14.688029 0-26.598052-11.910023-26.598052-26.598052 0-160.424313-130.512255-290.940568-290.940568-290.940568-14.690029 0-26.598052-11.910023-26.598052-26.598052s11.908023-26.598052 26.598052-26.598052c189.756371 0 344.134672 154.378302 344.134672 344.134672 0.002 14.692029-11.908023 26.600052-26.596052 26.600052zM511.99902 856.135672c-189.756371 0-344.134672-154.378302-344.134672-344.134672 0-14.688029 11.908023-26.598052 26.598052-26.598052S221.060452 497.312971 221.060452 512.001c0 160.424313 130.516255 290.940568 290.940568 290.940568 14.688029 0 26.598052 11.910023 26.598052 26.598052-0.002 14.686029-11.910023 26.596052-26.600052 26.596052z" fill="#2D527C" p-id="64736"></path><path d="M511.99902 856.225672c-134.656263 0-265.442518-57.494112-378.222739-166.268324-84.296165-81.302159-128.680251-161.834316-130.528255-165.222323a26.594052 26.594052 0 0 1 0-25.47005c1.848004-3.388007 46.23209-83.922164 130.528255-165.222323 112.77822-108.774212 243.566476-166.268325 378.222739-166.268324s265.442518 57.494112 378.222739 166.268324c84.294165 81.302159 128.680251 161.834316 130.528255 165.222323a26.594052 26.594052 0 0 1 0 25.47005c-1.848004 3.388007-46.23409 83.922164-130.528255 165.222323-112.77822 108.774212-243.564476 166.268325-378.222739 166.268324zM57.518132 512.011c15.49003 25.052049 54.470106 83.280163 114.310224 140.734275 103.856203 99.722195 218.306426 150.286294 340.174664 150.286293 258.104504 0 418.762818-233.404456 454.484888-291.040568-15.49003-25.052049-54.470106-83.280163-114.312224-140.734275C748.321482 271.53453 633.869258 220.970432 512.00102 220.970432c-258.106504-0.002-418.764818 233.402456-454.482888 291.040568z" fill="#2D527C" p-id="64737"></path><path d="M511.99902 344.590673c-65.226127 0-121.698238 37.328073-149.330292 91.762179l77.822152 75.646148-77.822152 75.646148c27.632054 54.438106 84.104164 91.764179 149.330292 91.764179 92.460181 0 167.412327-74.952146 167.412327-167.412327s-74.952146-167.406327-167.412327-167.406327z" fill="#CEE8FA" p-id="64738"></path><path d="M511.99902 706.009379c-73.450143 0-139.758273-40.74008-173.048338-106.324208a26.598052 26.598052 0 0 1 5.17801-31.112061l58.202114-56.57411-58.202114-56.576111a26.600052 26.600052 0 0 1-5.17801-31.11206c33.290065-65.580128 99.598195-106.322208 173.048338-106.322208 106.976209 0 194.006379 87.03417 194.006379 194.006379s-87.03017 194.014379-194.006379 194.014379z m-115.784226-113.878222c26.106051 37.844074 68.946135 60.680119 115.786226 60.680118 77.644152 0 140.812275-63.166123 140.812275-140.812275S589.647172 371.186725 512.00102 371.186725c-46.836091 0-89.680175 22.836045-115.786226 60.678118l62.816123 61.06012a26.604052 26.604052 0 0 1 0 38.148074l-62.816123 61.05812z" fill="#2D527C" p-id="64739"></path></svg>