<?xml version="1.0" standalone="no"?><!DOCTYPE svg PUBLIC "-//W3C//DTD SVG 1.1//EN" "http://www.w3.org/Graphics/SVG/1.1/DTD/svg11.dtd"><svg t="1713442930114" class="icon" viewBox="0 0 1024 1024" version="1.1" xmlns="http://www.w3.org/2000/svg" p-id="70270" xmlns:xlink="http://www.w3.org/1999/xlink" width="200" height="200"><path d="M155.4 812.4V299a32 32 0 0 1 32-32H536a47.72 47.72 0 0 0 33.96-14.08l64-64a32 32 0 0 1 22.64-9.36h200a32 32 0 0 1 32 32v39.4H744a48 48 0 0 0-33.92 14.04l-64 64a32 32 0 0 1-22.6 9.32H254.8a48 48 0 0 0-48 48V844.4h-19.4a32 32 0 0 1-32-32z" fill="#2197F7" p-id="70271"></path><path d="M976 900V299a32 32 0 0 0-32-32h-200a32 32 0 0 0-22.6 9.36l-64 64a48 48 0 0 1-33.92 14H274.8a32 32 0 0 0-32 32V900a32 32 0 0 0 32 32H944a32 32 0 0 0 32-32z m-64.6-177.08h-230.64a8 8 0 0 1-8-8V484a8 8 0 0 1 8-8h230.64a8 8 0 0 1 8 8v230.64a8 8 0 0 1-8 8.08z m-632-229.32a8 8 0 0 1 8-8h233.36a8 8 0 0 1 0 16H287.4a8 8 0 0 1-8-8.16z m0 73.76a8 8 0 0 1 8-8h313.36a8 8 0 0 1 0 16H287.4a8 8 0 0 1-8-8.16z m329.36 73.76a8 8 0 0 1-8 8H287.4a8 8 0 0 1 0-16h313.36a8 8 0 0 1 8 7.84z m0 73.76a8 8 0 0 1-8 8H367.4a8 8 0 1 1 0-16h233.36a8 8 0 0 1 8 7.84z" fill="#40BDFF" p-id="70272"></path><path d="M944 267h-20a32 32 0 0 1 32 32V900a32 32 0 0 1-32 32h20a32 32 0 0 0 32-32V299a32 32 0 0 0-32-32z" fill="#2197F7" p-id="70273"></path><path d="M878.76 693.24c0-28-16.2-55.64-49.24-68.28 10.72-10.6 17.24-22.08 17.24-38.2a50.72 50.72 0 0 0-101.44 0c0 16 6.6 27.64 17.24 38.2-33.16 12.68-49.24 40.44-49.24 68.28v13.48h-24.64V492h214.64v214.64h-24.64z" fill="#FFDD00" p-id="70274"></path><path d="M792.28 621.28a34.76 34.76 0 1 1 7.56 0zM785.32 637.28h21.48a56 56 0 0 1 56 56v13.48h-133.44v-13.48a56 56 0 0 1 55.96-56z" fill="#EFFAFE" p-id="70275"></path><path d="M100 179.6h348.8a47.52 47.52 0 0 0 33.96-14.08l64-64a32 32 0 0 1 22.6-9.52h200a32 32 0 0 1 32 32v39.6h-144.6a47.68 47.68 0 0 0-33.92 14.08l-64 64a32 32 0 0 1-22.84 9.32H167.4a48 48 0 0 0-48 48v458H100a32 32 0 0 1-32-32V211.6a32 32 0 0 1 32-32z" fill="#40BDFF" p-id="70276"></path><path d="M883.4 492.08h20v214.64h-20z" fill="#EFC803" p-id="70277"></path><path d="M796 552a34.6 34.6 0 0 0-10 1.48 34.68 34.68 0 0 1 0 66.44 34.88 34.88 0 0 0 6.16 1.28h7.56A34.72 34.72 0 0 0 796 552zM806.8 637.28h-20a56 56 0 0 1 56 56v13.48h20v-13.48a56 56 0 0 0-56-56z" fill="#E4EBED" p-id="70278"></path><path d="M769.2 92h-18a32 32 0 0 1 32 32v39.6h18V124a32 32 0 0 0-32-32z" fill="#2197F7" p-id="70279"></path><path d="M856.6 179.6h-18a32 32 0 0 1 32 32v39.4h18V211.6a32 32 0 0 0-32-32z" fill="#228ED6" p-id="70280"></path><path d="M30 211.6v513.4a50.04 50.04 0 0 0 50 50h37.4v37.4a50.04 50.04 0 0 0 50 50h37.4v37.6a50.04 50.04 0 0 0 50 50H944a50.04 50.04 0 0 0 50-50V299a50.04 50.04 0 0 0-50-50h-37.4V211.6a50.04 50.04 0 0 0-50-50h-37.4V124a50.04 50.04 0 0 0-50-50h-200a50.2 50.2 0 0 0-35.36 14.68l-64 64a29.68 29.68 0 0 1-21.2 8.8H80A50.04 50.04 0 0 0 30 211.6z m194.8 174.8a30.04 30.04 0 0 1 30-30h368.84a49.8 49.8 0 0 0 35.32-14.6l64-64a29.92 29.92 0 0 1 21.2-8.8h200a30.04 30.04 0 0 1 30 30V900a30.04 30.04 0 0 1-30 30H254.8a30.04 30.04 0 0 1-30-30V386.4zM137.4 299a30.04 30.04 0 0 1 30-30H536a49.72 49.72 0 0 0 35.4-14.64l64-64a29.8 29.8 0 0 1 21.2-8.8h200a30.04 30.04 0 0 1 30 30v37.4H744a49.8 49.8 0 0 0-35.32 14.64l-64 64a29.92 29.92 0 0 1-21.2 8.76H254.8A50.04 50.04 0 0 0 204.8 386.4v456h-37.4a30.04 30.04 0 0 1-30-30V299zM50 211.6a30.04 30.04 0 0 1 30-30h368.8a49.52 49.52 0 0 0 35.2-14.68l64-64a30.08 30.08 0 0 1 21.2-8.8h200a30.04 30.04 0 0 1 30 30v37.48h-142.44a49.68 49.68 0 0 0-35.36 14.64l-64 64a29.84 29.84 0 0 1-21.24 8.8H167.4a50.04 50.04 0 0 0-50 50v456H80a30.04 30.04 0 0 1-30-30z" fill="#263238" p-id="70281"></path><path d="M670.76 484v230.64a10 10 0 0 0 10 10h230.64a10 10 0 0 0 10-10V484a10 10 0 0 0-10-10h-230.64a10 10 0 0 0-10 10z m60.64 209.2a54.04 54.04 0 0 1 53.96-53.96h21.48a54.04 54.04 0 0 1 53.96 53.96v11.48h-129.44z m68.36-73.96h-7.36a32.72 32.72 0 1 1 7.32 0z m-109-125.24h210.64v210.64h-20.64v-11.48a74.04 74.04 0 0 0-47.64-69.04 52.72 52.72 0 1 0-74.16 0 74.04 74.04 0 0 0-47.64 69.04v11.48h-20.64zM287.4 483.44h233.36a10 10 0 0 1 0 20H287.4a10 10 0 0 1 0-20zM287.4 557.2h313.36a10 10 0 0 1 0 20H287.4a10 10 0 0 1 0-20zM287.4 630.96h313.36a10 10 0 0 1 0 20H287.4a10 10 0 0 1 0-20zM367.4 704.72h233.36a10 10 0 0 1 0 20H367.4a10 10 0 1 1 0-20z" fill="#263238" p-id="70282"></path><path d="M100 890h-16v-16a4 4 0 0 0-8 0v16h-16a4 4 0 0 0 0 8h16v16a4 4 0 0 0 8 0v-16h16a4 4 0 0 0 0-8zM876 70.2h-16v-16a4 4 0 1 0-8 0v16h-16a4 4 0 0 0 0 8h16v16a4 4 0 0 0 8 0v-16h16a4 4 0 0 0 0-8z" fill="#FFDD00" p-id="70283"></path><path d="M288 98.4h-16v-16a4 4 0 1 0-8 0v16h-16a4 4 0 0 0 0 8h16v16a4 4 0 0 0 8 0v-16h16a4 4 0 0 0 0-8zM454 102.4a24 24 0 1 1 24-24 24 24 0 0 1-24 24z m0-40a16 16 0 1 0 16 16 16 16 0 0 0-16-16z" fill="#40BDFF" p-id="70284"></path><path d="M929.36 156.84a24 24 0 1 1 24-24 24 24 0 0 1-24 24z m0-40a16 16 0 1 0 16 16 16 16 0 0 0-16-16z" fill="#FFDD00" p-id="70285"></path><path d="M199.4 956h-10.36l7.32-7.32a4 4 0 0 0-5.64-5.64l-7.32 7.32V940a4 4 0 0 0-8 0v10.36L168 943.04a4 4 0 0 0-5.64 5.64l7.4 7.32h-10.36a4 4 0 1 0 0 8h10.36l-7.32 7.32a4 4 0 0 0 5.56 5.64l7.32-7.32V980a4 4 0 0 0 8 0v-10.36l7.32 7.32a4 4 0 0 0 5.64-5.64L189.04 964h10.36a4 4 0 0 0 0-8z" fill="#40BDFF" p-id="70286"></path></svg>