<?xml version="1.0" standalone="no"?><!DOCTYPE svg PUBLIC "-//W3C//DTD SVG 1.1//EN" "http://www.w3.org/Graphics/SVG/1.1/DTD/svg11.dtd"><svg t="1713443028555" class="icon" viewBox="0 0 1024 1024" version="1.1" xmlns="http://www.w3.org/2000/svg" p-id="74990" xmlns:xlink="http://www.w3.org/1999/xlink" width="200" height="200"><path d="M687.2 356.4c0 10.8-8.8 19.4-19.4 19.4-10.8 0-19.4-8.8-19.4-19.4H103.4v389.2c0 43 34.8 77.8 77.8 77.8h661.8c43 0 77.8-34.8 77.8-77.8V356.4H687.2z" fill="#FCD64B" p-id="74991"></path><path d="M842.8 831.4H181.2c-47.4 0-85.8-38.6-85.8-85.8V356.4c0-4.4 3.6-8 8-8h544.8c4.4 0 8 3.6 8 8 0 6.4 5.2 11.4 11.4 11.4 6.4 0 11.4-5.2 11.4-11.4 0-4.4 3.6-8 8-8h233.6c4.4 0 8 3.6 8 8v389.2c0 47.2-38.4 85.8-85.8 85.8zM111.4 364.4v381.2c0 38.6 31.4 69.8 69.8 69.8h661.6c38.6 0 69.8-31.4 69.8-69.8V364.4H694c-3.4 11.2-14 19.4-26.2 19.4s-22.8-8.2-26.2-19.4H111.4z" fill="#402943" p-id="74992"></path><path d="M823.4 356.4v389.2c0 43-34.8 77.8-77.8 77.8h97.4c43 0 77.8-34.8 77.8-77.8V356.4h-97.4z" fill="#F5AB33" p-id="74993"></path><path d="M200.6 356.4v389.2c0 43 34.8 77.8 77.8 77.8H181.2c-43 0-77.8-34.8-77.8-77.8V356.4h97.2z" fill="#F5AB33" p-id="74994"></path><path d="M842.8 833H181.2c-48.2 0-87.6-39.2-87.6-87.6V356.4c0-5.4 4.4-9.8 9.8-9.8h544.8c5.4 0 9.8 4.4 9.8 9.8s4.4 9.8 9.8 9.8 9.8-4.4 9.8-9.8 4.4-9.8 9.8-9.8h233.6c5.4 0 9.8 4.4 9.8 9.8v389.2c-0.4 48.2-39.8 87.4-88 87.4z m0-19.4c37.6 0 68.2-30.6 68.2-68.2V366H695.2c-4 11.4-14.8 19.4-27.6 19.4-12.6 0-23.6-8.2-27.6-19.4H113v379.4c0 37.6 30.6 68.2 68.2 68.2h661.6z" fill="#402943" p-id="74995"></path><path d="M920.6 745.6c0-43-34.8-77.8-77.8-77.8h-39V200.6h39c43 0 77.8 34.8 77.8 77.8v467.2z" fill="#FCD64B" p-id="74996"></path><path d="M920.6 753.6c-4.4 0-8-3.6-8-8 0-38.6-31.4-69.8-69.8-69.8h-39c-2.2 0-4.2-0.8-5.6-2.4-1.6-1.6-2.4-3.6-2.4-5.6V200.6c0-4.4 3.6-8 8-8h39c47.4 0 85.8 38.6 85.8 85.8v467c0 4.6-3.6 8.2-8 8.2z m-77.8-94c28.8 0 54.2 14.2 69.8 36V278.4c0-38.6-31.4-69.8-69.8-69.8h-31v451h31z" fill="#402943" p-id="74997"></path><path d="M881.6 278.4c0-43-34.8-77.8-77.8-77.8h38.8c43 0 77.8 34.8 77.8 77.8v467c0-28.8-15.6-54-39-67.4V278.4z" fill="#F5AB33" p-id="74998"></path><path d="M803.8 667.6z" fill="#E6E7E8" p-id="74999"></path><path d="M920.6 755.2c-5.4 0-9.8-4.4-9.8-9.8 0-37.6-30.6-68.2-68.2-68.2h-39c-5.4 0-9.8-4.4-9.8-9.8V200.6c0-5.4 4.4-9.8 9.8-9.8h39c48.2 0 87.6 39.2 87.6 87.6v467c0.2 5.4-4.2 9.8-9.6 9.8zM813.6 658h29.2c27.4 0 52 12.8 68.2 32.6v-412c0-37.6-30.6-68.2-68.2-68.2h-29.2V658z" fill="#402943" p-id="75000"></path><path d="M842.8 555.8c-2.6 0-4.8-2.2-4.8-4.8V200.6c0-2.6 2.2-4.8 4.8-4.8 2.6 0 4.8 2.2 4.8 4.8v350.2c0 2.8-2.2 5-4.8 5zM842.8 672.6c-2.6 0-4.8-2.2-4.8-4.8V590c0-2.6 2.2-4.8 4.8-4.8 2.6 0 4.8 2.2 4.8 4.8v77.8c0 2.6-2.2 4.8-4.8 4.8z" fill="#402943" p-id="75001"></path><path d="M103.4 745.6c0-43 34.8-77.8 77.8-77.8h39V200.6H181.2c-43 0-77.8 34.8-77.8 77.8v467.2z" fill="#FCD64B" p-id="75002"></path><path d="M103.4 753.6c-4.4 0-8-3.6-8-8V278.4c0-47.4 38.6-85.8 85.8-85.8h39c4.4 0 8 3.6 8 8v467c0 2.2-0.8 4.2-2.4 5.6-1.6 1.6-3.6 2.4-5.6 2.4H181.2c-38.6 0-69.8 31.4-69.8 69.8 0 4.6-3.6 8.2-8 8.2z m77.8-545c-38.6 0-69.8 31.4-69.8 69.8v417.2c15.6-21.8 41-36 69.8-36h31V208.6H181.2z" fill="#402943" p-id="75003"></path><path d="M142.2 278.4c0-43 34.8-77.8 77.8-77.8H181.2c-43 0-77.8 34.8-77.8 77.8v467c0-28.8 15.6-54 39-67.4V278.4z" fill="#FFECA6" p-id="75004"></path><path d="M220 667.6c0.2 0 0 0 0 0z" fill="#E6E7E8" p-id="75005"></path><path d="M103.4 755.2c-5.4 0-9.8-4.4-9.8-9.8V278.6c0-48.2 39.2-87.6 87.6-87.6h39c5.4 0 9.8 4.4 9.8 9.8v467c0 5.4-4.4 9.8-9.8 9.8H181.2c-37.6 0-68.2 30.6-68.2 68.2 0 5-4.2 9.4-9.6 9.4z m77.8-544.8c-37.6 0-68.2 30.6-68.2 68.2v412c16-19.8 40.6-32.6 68.2-32.6h29.2V210.4H181.2z" fill="#402943" p-id="75006"></path><path d="M181.2 555.8c-2.6 0-4.8-2.2-4.8-4.8V200.6c0-2.6 2.2-4.8 4.8-4.8 2.6 0 4.8 2.2 4.8 4.8v350.2c0 2.8-2.2 5-4.8 5zM181.2 672.6c-2.6 0-4.8-2.2-4.8-4.8V590c0-2.6 2.2-4.8 4.8-4.8 2.6 0 4.8 2.2 4.8 4.8v77.8c0 2.6-2.2 4.8-4.8 4.8z" fill="#402943" p-id="75007"></path><path d="M532.014 508.606l55.012 55.012-27.578 27.578-55.012-55.014z" fill="#E6E7E8" p-id="75008"></path><path d="M532 508.6l-13.8 13.8 54.6 55.6 14.2-14.2z" fill="#BCBEC0" p-id="75009"></path><path d="M559.4 601c-2.4 0-5-1-6.8-2.8l-55-55c-3.8-3.8-3.8-10 0-13.8l27.6-27.6c3.8-3.8 10-3.8 13.8 0l55 55c3.8 3.8 3.8 10 0 13.8L566.4 598c-2 2-4.4 3-7 3z m-41.2-64.8l41.2 41.2 13.8-13.8-41.2-41.2-13.8 13.8z" fill="#402943" p-id="75010"></path><path d="M600.708 549.93l110.024 110.024-55.012 55.012-110.024-110.024z" fill="#59C3F0" p-id="75011"></path><path d="M600.694 550.144l109.992 110.056-13.72 13.714-109.994-110.056z" fill="#21A0D6" p-id="75012"></path><path d="M559.468 591.31l109.992 110.056-13.72 13.714-109.994-110.056z" fill="#96DCFA" p-id="75013"></path><path d="M655.8 724.8c-2.4 0-5-1-6.8-2.8l-110-110c-3.8-3.8-3.8-10 0-13.8l55-55c3.8-3.8 10-3.8 13.8 0l110 110c3.8 3.8 3.8 10 0 13.8L662.6 722c-1.8 1.8-4.4 2.8-6.8 2.8z m-96.4-119.8l96.4 96.4 41.2-41.2-96.4-96.4-41.2 41.2z" fill="#402943" p-id="75014"></path><path d="M353.067595 549.910512a136.2 136.2 0 1 0 192.612525-192.619249 136.2 136.2 0 1 0-192.612525 192.619249Z" fill="#E6E7E8" p-id="75015"></path><path d="M545.8 357.4c-31-31-73.2-44-113.6-38.8 28.8 3.6 56.8 16.6 79 38.8 53.2 53.2 53.2 139.4 0 192.6-22.2 22.2-50 35-79 38.8 40.4 5.2 82.6-7.8 113.6-38.8 53-53.2 53-139.4 0-192.6z" fill="#BCBEC0" p-id="75016"></path><path d="M353 550c31 31 73.2 44 113.6 38.8-28.8-3.6-56.8-16.6-79-38.8-53.2-53.2-53.2-139.4 0-192.6 22.2-22.2 50-35 79-38.8-40.4-5.2-82.6 7.8-113.6 38.8-53.2 53.2-53.2 139.4 0 192.6z" fill="#FFFFFF" p-id="75017"></path><path d="M449.4 599.6c-39 0-75.6-15.2-103.2-42.8-27.6-27.6-42.8-64.2-42.8-103.2s15.2-75.6 42.8-103.2c27.6-27.6 64.2-42.8 103.2-42.8s75.6 15.2 103.2 42.8c27.6 27.6 42.8 64.2 42.8 103.2s-15.2 75.6-42.8 103.2c-27.6 27.6-64.2 42.8-103.2 42.8z m0-272.4c-32.4 0-64.8 12.4-89.4 37-49.4 49.4-49.4 129.6 0 178.8 49.4 49.4 129.6 49.4 178.8 0 49.4-49.4 49.4-129.6 0-178.8-24.6-24.6-57-37-89.4-37z" fill="#402943" p-id="75018"></path><path d="M385.169682 517.807304a90.8 90.8 0 1 0 128.40835-128.412833 90.8 90.8 0 1 0-128.40835 128.412833Z" fill="#59C3F0" p-id="75019"></path><path d="M513.6 389.4a90.868 90.868 0 0 0-75-26c19.6 2.4 38.4 11 53.4 26 35.4 35.4 35.4 93 0 128.4-15 15-33.8 23.6-53.4 26 26.8 3.2 54.6-5.4 75-26 35.4-35.4 35.4-93 0-128.4z" fill="#21A0D6" p-id="75020"></path><path d="M385.2 517.8c20.4 20.4 48.4 29.2 75 26-19.6-2.4-38.4-11-53.4-26-35.4-35.4-35.4-93 0-128.4 15-15 33.8-23.6 53.4-26-26.8-3.2-54.6 5.4-75 26-35.4 35.4-35.4 93 0 128.4z" fill="#96DCFA" p-id="75021"></path><path d="M449.4 554.2c-26.8 0-52.2-10.4-71-29.4-19-19-29.4-44.2-29.4-71 0-26.8 10.4-52 29.4-71s44.2-29.4 71-29.4c26.8 0 52.2 10.4 71 29.4 19 19 29.4 44.2 29.4 71 0 26.8-10.4 52.2-29.4 71-19 19-44.2 29.4-71 29.4z m0-181.6c-21.6 0-42 8.4-57.4 23.8-15.4 15.4-23.8 35.6-23.8 57.4 0 21.6 8.4 42 23.8 57.4 15.4 15.4 35.6 23.8 57.4 23.8 21.6 0 42-8.4 57.4-23.8 15.4-15.4 23.8-35.6 23.8-57.4 0-21.6-8.4-42-23.8-57.4-15.4-15.4-35.8-23.8-57.4-23.8z" fill="#402943" p-id="75022"></path><path d="M573.2 637.4c-1.2 0-2.4-0.4-3.4-1.4-2-2-2-5 0-6.8l55-55c2-2 5-2 6.8 0 2 2 2 5 0 6.8L576.6 636c-0.8 0.8-2.2 1.4-3.4 1.4z" fill="#402943" p-id="75023"></path><path d="M249.8 735.8h-37.4c-5.4 0-9.8-4.4-9.8-9.8s4.4-9.8 9.8-9.8h37.4c5.4 0 9.8 4.4 9.8 9.8s-4.4 9.8-9.8 9.8zM387.6 735.8h-98c-5.4 0-9.8-4.4-9.8-9.8s4.4-9.8 9.8-9.8h98c5.4 0 9.8 4.4 9.8 9.8s-4.4 9.8-9.8 9.8z" fill="#402943" p-id="75024"></path><path d="M484.8 780.4c-30 0-54.2-24.4-54.2-54.2s24.4-54.2 54.2-54.2c30 0 54.2 24.4 54.2 54.2s-24.2 54.2-54.2 54.2z m0-69.8c-8.4 0-15.4 6.8-15.4 15.4s6.8 15.4 15.4 15.4c8.4 0 15.4-6.8 15.4-15.4s-6.8-15.4-15.4-15.4z" fill="#4AB5AC" p-id="75025"></path><path d="M484.8 790c-35.2 0-64-28.8-64-64s28.8-64 64-64 64 28.8 64 64c0 35.4-28.6 64-64 64z m0-108.4c-24.6 0-44.6 20-44.6 44.6s20 44.6 44.6 44.6 44.6-20 44.6-44.6-20-44.6-44.6-44.6z m0 69.6c-13.8 0-25-11.2-25-25s11.2-25 25-25 25 11.2 25 25c0.2 13.6-11.2 25-25 25z m0-30.8c-3.2 0-5.6 2.6-5.6 5.6 0 3.2 2.6 5.6 5.6 5.6 3.2 0 5.6-2.6 5.6-5.6 0-3-2.4-5.6-5.6-5.6z" fill="#402943" p-id="75026"></path></svg>