<?xml version="1.0" standalone="no"?><!DOCTYPE svg PUBLIC "-//W3C//DTD SVG 1.1//EN" "http://www.w3.org/Graphics/SVG/1.1/DTD/svg11.dtd"><svg t="1713442130446" class="icon" viewBox="0 0 1024 1024" version="1.1" xmlns="http://www.w3.org/2000/svg" p-id="16973" xmlns:xlink="http://www.w3.org/1999/xlink" width="200" height="200"><path d="M512 512m-512 0a512 512 0 1 0 1024 0 512 512 0 1 0-1024 0Z" fill="#324A5E" p-id="16974"></path><path d="M703.593651 761.092063L212.114286 512.203175l481.930158-249.295238 18.488889 35.555555-412.647619 213.333333L721.67619 725.333333z" fill="#CED5E0" p-id="16975"></path><path d="M265.955556 512m-113.980953 0a113.980952 113.980952 0 1 0 227.961905 0 113.980952 113.980952 0 1 0-227.961905 0Z" fill="#4CDBC4" p-id="16976"></path><path d="M703.187302 280.787302m-88.787302 0a88.787302 88.787302 0 1 0 177.574603 0 88.787302 88.787302 0 1 0-177.574603 0Z" fill="#FFD05B" p-id="16977"></path><path d="M703.187302 743.212698m-88.787302 0a88.787302 88.787302 0 1 0 177.574603 0 88.787302 88.787302 0 1 0-177.574603 0Z" fill="#FF7058" p-id="16978"></path></svg>