<?xml version="1.0" standalone="no"?><!DOCTYPE svg PUBLIC "-//W3C//DTD SVG 1.1//EN" "http://www.w3.org/Graphics/SVG/1.1/DTD/svg11.dtd"><svg t="1713443074433" class="icon" viewBox="0 0 1027 1024" version="1.1" xmlns="http://www.w3.org/2000/svg" p-id="78490" xmlns:xlink="http://www.w3.org/1999/xlink" width="200.5859375" height="200"><path d="M1008.127218 282.668668l-134.911437-192.845174a40.092552 40.092552 0 0 0-65.751785 46.106434l134.911437 192.845175a24.055531 24.055531 0 0 1 3.207404 20.848127l-137.517453 446.02964L529.021223 709.654347a40.092552 40.092552 0 1 0-23.654606 76.576774l279.044162 85.998524-16.838872 54.52587a23.193541 23.193541 0 0 1-11.827303 14.232856 24.055531 24.055531 0 0 1-18.242111 1.804165l-361.634819-111.657757a40.092552 40.092552 0 1 0-23.654605 76.576774l361.634818 111.657757a102.035545 102.035545 0 0 0 30.871265 4.610644 104.240635 104.240635 0 0 0 99.429529-73.36937l28.666175-92.814258L1022.360074 373.297882a103.278414 103.278414 0 0 0-14.232856-90.629214z" fill="#3390FF" p-id="78491"></path><path d="M902.082419 358.844517L873.015318 125.325448a109.8135 109.8135 0 0 0-95.420273-95.420273L544.05593 0.838075a103.679339 103.679339 0 0 0-86.599912 29.668488L99.028603 388.913931l-68.558264 68.558264a104.541329 104.541329 0 0 0 0 147.540591l267.617785 267.617784a104.541329 104.541329 0 0 0 147.540591 0l68.558264-68.558264 358.627877-358.627877A104.661607 104.661607 0 0 0 902.082419 358.844517zM354.418159 815.899609L86.800375 548.301871a24.195855 24.195855 0 0 1 0-34.078669l40.293015-40.293015 301.49599 301.495991-40.293015 40.293015a23.654606 23.654606 0 0 1-33.878206 0.180416z m461.26481-427.186141L485.520804 718.89568 184.024813 417.399689l330.162166-330.162165A23.79493 23.79493 0 0 1 531.226313 80.201281a15.175031 15.175031 0 0 1 3.006942 0.200463L767.77237 109.48889a29.387841 29.387841 0 0 1 25.659233 25.659234l29.0671 233.539115a23.694698 23.694698 0 0 1-6.815734 20.046276z" fill="#3390FF" p-id="78492"></path><path d="M513.184665 224.534468a116.80965 116.80965 0 1 0 165.181314 0 116.990067 116.990067 0 0 0-165.181314 0z m108.450353 108.450353a36.564407 36.564407 0 0 1-51.719392-51.719392 36.083297 36.083297 0 0 1 25.859696-10.624526 36.484222 36.484222 0 0 1 25.859696 62.343918z" fill="#231815" p-id="78493"></path></svg>