<?xml version="1.0" standalone="no"?><!DOCTYPE svg PUBLIC "-//W3C//DTD SVG 1.1//EN" "http://www.w3.org/Graphics/SVG/1.1/DTD/svg11.dtd"><svg t="1713442170385" class="icon" viewBox="0 0 1024 1024" version="1.1" xmlns="http://www.w3.org/2000/svg" p-id="21695" xmlns:xlink="http://www.w3.org/1999/xlink" width="200" height="200"><path d="M519.757576 574.060606C635.454061 574.060606 729.212121 476.811636 729.212121 356.848485S635.392 139.636364 519.757576 139.636364 310.30303 236.885333 310.30303 356.848485s93.758061 217.212121 209.454546 217.212121z m0-398.630788c96.131879 0 174.281697 81.392485 174.281697 181.418667 0 100.026182-78.227394 181.418667-174.281697 181.418667-96.054303 0-174.359273-81.392485-174.359273-181.418667 0-100.026182 78.227394-181.418667 174.359273-181.418667z" fill="#333333" p-id="21696"></path><path d="M519.788606 170.666667C618.185697 170.666667 698.181818 254.200242 698.181818 356.848485s-80.058182 186.181818-178.393212 186.181818C421.469091 543.030303 341.333333 459.496727 341.333333 356.848485S421.391515 170.666667 519.788606 170.666667z" fill="#F8D02D" p-id="21697"></path><path d="M512 605.090909c-154.003394 0-279.272727 125.300364-279.272727 279.133091l35.886545 0.139636c0-133.585455 109.195636-242.548364 243.386182-242.548363 134.206061 0 243.386182 100.770909 243.386182 241.989818H791.272727C791.272727 724.681697 666.003394 605.090909 512 605.090909zM585.712485 421.391515a109.785212 109.785212 0 0 1-65.939394 21.566061 109.785212 109.785212 0 0 1-65.939394-21.566061 12.458667 12.458667 0 0 0-7.462788-2.482424c-11.279515 0-16.290909 13.498182-7.385212 20.076606A134.795636 134.795636 0 0 0 519.757576 465.454545a134.811152 134.811152 0 0 0 80.787394-26.468848c8.843636-6.578424 3.878788-20.076606-7.385212-20.076606a12.458667 12.458667 0 0 0-7.447273 2.482424z" fill="#333333" p-id="21698"></path></svg>